<?xml version="1.0" encoding="utf-8"?>
<!-- Generator: Adobe Illustrator 26.5.0, SVG Export Plug-In . SVG Version: 6.00 Build 0)  -->
<svg version="1.1" id="Layer_1" xmlns="http://www.w3.org/2000/svg" xmlns:xlink="http://www.w3.org/1999/xlink" x="0px" y="0px"
	 viewBox="0 0 800 800" style="enable-background:new 0 0 800 800;" xml:space="preserve">
<style type="text/css">
	.st0{fill:#323232;}
</style>
<path class="st0" d="M400,0C179.1,0,0,179.1,0,400s179.1,400,400,400s400-179.1,400-400S620.9,0,400,0z M414.2,222
	c14.7-17.8,39.7-31.4,61.1-33c3.6,24.4-6.4,48.1-19.5,65c-14.1,18.1-38.3,32-61.7,31.2C390,262,400.9,238.1,414.2,222z M545.9,531.1
	c-16.9,25.6-40.6,57.7-70.2,58c-26.2,0.3-33-17-68.4-16.9s-43,17.2-69.2,16.9c-29.5-0.3-52-29.2-68.9-54.8
	c-47.2-71.9-52.2-156.1-23-200.9c20.6-31.9,53.3-50.5,84.1-50.5c31.2,0,50.8,17.2,76.7,17.2c25,0,40.3-17.2,76.4-17.2
	c27.3,0,56.3,14.8,76.9,40.6c-67.5,37-56.6,133.4,11.7,159.2C562.5,503.3,558,512.7,545.9,531.1z"/>
</svg>
