<?xml version="1.0" encoding="utf-8"?>
<!-- Generator: Adobe Illustrator 26.5.0, SVG Export Plug-In . SVG Version: 6.00 Build 0)  -->
<svg version="1.1" id="Layer_1" xmlns="http://www.w3.org/2000/svg" xmlns:xlink="http://www.w3.org/1999/xlink" x="0px" y="0px"
	 viewBox="0 0 800 800" style="enable-background:new 0 0 800 800;" xml:space="preserve">
<style type="text/css">
	.st0{fill:#323232;}
</style>
<g>
	<path class="st0" d="M360,258.1c-6.4,0-11.6,5.2-11.6,11.6c0,6.4,5.2,11.6,11.6,11.6s11.6-5.2,11.6-11.6
		C371.6,263.3,366.4,258.1,360,258.1z"/>
	<path class="st0" d="M452.8,258.1c-6.4,0-11.6,5.2-11.6,11.6c0,6.4,5.2,11.6,11.6,11.6c6.4,0,11.6-5.2,11.6-11.6
		C464.5,263.3,459.4,258.1,452.8,258.1z"/>
	<path class="st0" d="M400,0C179.1,0,0,179.1,0,400s179.1,400,400,400s400-179.1,400-400S620.9,0,400,0z M282.5,450.3
		c0,12.8-10.5,23.3-23.3,23.3c-12.8,0-23.3-10.5-23.3-23.3v-99.4c0-12.8,10.5-23.3,23.3-23.3c12.8,0,23.3,10.5,23.3,23.3V450.3z
		 M514.8,347v15.8v135.3c0,13.6-10.9,24.5-24.5,24.5h-17.7c0.6,2,0.9,4.2,0.9,6.4v1.2v7.8v40c0,12.8-10.5,23.3-23.3,23.3
		S427,590.9,427,578.1v-40v-7.8v-1.2c0-2.2,0.3-4.4,0.9-6.4h-43.1c0.6,2,0.9,4.2,0.9,6.4v1.2v7.8v40c0,12.8-10.5,23.3-23.3,23.3
		c-12.8,0-23.3-10.5-23.3-23.3v-40v-7.8v-1.2c0-2.2,0.3-4.4,0.9-6.4h-17.7c-13.6,0-24.5-10.9-24.5-24.5V362.8V347v-19.4h1.7h213.4
		h1.7L514.8,347L514.8,347z M298,312.3c0-33.1,22.2-62.2,55.2-77.5l-4.4-6.6l-4.4-6.4l-9.7-14.5c-1.1-1.7-0.6-4.2,1.1-5.3
		c1.7-1.3,4.2-0.6,5.3,1.1l10.3,15.5l4.4,6.6l4.4,6.6c14.1-5.5,29.5-8.4,46.1-8.4c16.4,0,32,3,46.1,8.4l4.4-6.6l4.4-6.6l10.3-15.5
		c1.1-1.7,3.6-2.3,5.3-1.1c1.7,1.2,2.3,3.6,1.1,5.3l-9.7,14.5l-4.1,6.4l-4.4,6.6c32.8,15.3,55,44.2,55,77.5H298L298,312.3z
		 M576.7,450.3c0,12.8-10.5,23.3-23.3,23.3s-23.3-10.5-23.3-23.3v-99.4c0-12.8,10.5-23.3,23.3-23.3c12.8,0,23.3,10.5,23.3,23.3
		V450.3z"/>
</g>
</svg>
